<svg width="700" height="324" viewBox="0 0 700 324" fill="none" xmlns="http://www.w3.org/2000/svg">
<rect width="700" height="323.032" fill="#6E9C8D"/>
<path d="M185.295 323.032L514.706 0H700V323.032H185.295Z" fill="#DBAD95"/>
<path d="M90.7726 199.471V138.742H109.591C115.22 138.742 120.207 139.906 124.551 142.234C128.93 144.528 132.336 147.812 134.768 152.086C137.201 156.361 138.469 161.261 138.574 166.786V170.8C138.574 179.558 135.863 186.526 130.442 191.704C125.055 196.882 117.792 199.471 108.652 199.471H90.7726ZM100.416 146.717V191.599H108.965C115.429 191.599 120.381 189.792 123.822 186.178C127.262 182.564 128.982 177.421 128.982 170.748V167.412C128.982 160.74 127.332 155.631 124.03 152.086C120.763 148.507 115.95 146.717 109.591 146.717H100.416ZM201.7 170.905C201.7 179.975 199.303 187.151 194.507 192.433C189.711 197.681 183.282 200.305 175.22 200.305C167.261 200.305 160.832 197.646 155.932 192.329C151.067 187.012 148.634 179.784 148.634 170.644V167.412C148.634 158.446 151.05 151.287 155.88 145.935C160.745 140.584 167.157 137.908 175.115 137.908C183.212 137.908 189.642 140.549 194.403 145.831C199.198 151.113 201.631 158.185 201.7 167.047V170.905ZM192.161 167.308C192.161 160.427 190.667 155.162 187.678 151.513C184.689 147.864 180.502 146.04 175.115 146.04C169.903 146.04 165.767 147.899 162.709 151.617C159.685 155.336 158.174 160.618 158.174 167.464V170.905C158.174 177.681 159.703 182.946 162.761 186.699C165.819 190.418 169.972 192.277 175.22 192.277C180.641 192.277 184.811 190.452 187.73 186.804C190.684 183.12 192.161 177.82 192.161 170.905V167.308ZM262.951 191.651C260.657 194.536 257.477 196.708 253.411 198.167C249.38 199.592 244.741 200.305 239.493 200.305C231.222 200.305 224.585 197.716 219.58 192.538C214.576 187.36 212.039 180.392 211.97 171.634V166.943C211.97 157.838 214.281 150.731 218.903 145.623C223.559 140.479 230.093 137.908 238.503 137.908C245.453 137.908 251.031 139.541 255.236 142.808C259.441 146.074 262.012 150.853 262.951 157.143H253.359C252.038 149.602 247.121 145.831 238.607 145.831C233.081 145.831 228.876 147.621 225.992 151.2C223.108 154.78 221.665 160.027 221.665 166.943V171.322C221.665 177.924 223.264 183.102 226.461 186.856C229.693 190.574 234.089 192.433 239.649 192.433C245.974 192.433 250.544 191.148 253.359 188.576V176.169H238.711V168.663H262.951V191.651ZM353.705 170.905C353.705 179.975 351.307 187.151 346.511 192.433C341.716 197.681 335.287 200.305 327.224 200.305C319.266 200.305 312.837 197.646 307.937 192.329C303.072 187.012 300.639 179.784 300.639 170.644V167.412C300.639 158.446 303.054 151.287 307.885 145.935C312.75 140.584 319.162 137.908 327.12 137.908C335.217 137.908 341.646 140.549 346.407 145.831C351.203 151.113 353.635 158.185 353.705 167.047V170.905ZM344.166 167.308C344.166 160.427 342.671 155.162 339.683 151.513C336.694 147.864 332.506 146.04 327.12 146.04C321.907 146.04 317.772 147.899 314.713 151.617C311.69 155.336 310.178 160.618 310.178 167.464V170.905C310.178 177.681 311.707 182.946 314.766 186.699C317.824 190.418 321.977 192.277 327.224 192.277C332.645 192.277 336.816 190.452 339.735 186.804C342.689 183.12 344.166 177.82 344.166 170.905V167.308Z" fill="#DBAD95"/>
<path d="M390.194 176.065H375.651V199.471H366.007V138.742H388.214C395.616 138.742 401.315 140.358 405.311 143.59C409.343 146.822 411.358 151.391 411.358 157.299C411.358 165.223 407.275 170.731 399.108 173.824L414.121 198.949V199.471H403.8L390.194 176.065ZM375.651 168.194H388.474C392.54 168.194 395.755 167.256 398.118 165.379C400.516 163.468 401.715 160.896 401.715 157.664C401.715 154.189 400.55 151.496 398.222 149.584C395.894 147.673 392.54 146.717 388.161 146.717H375.651V168.194ZM498.412 179.818C497.717 186.317 495.18 191.356 490.801 194.935C486.422 198.515 480.601 200.305 473.338 200.305C465.554 200.305 459.298 197.75 454.572 192.642C449.881 187.499 447.535 180.427 447.535 171.426V166.526C447.535 160.827 448.595 155.822 450.715 151.513C452.869 147.169 455.945 143.816 459.941 141.452C463.973 139.089 468.629 137.908 473.912 137.908C481.001 137.908 486.683 139.75 490.957 143.433C495.267 147.082 497.751 152.156 498.412 158.655H488.768C488.142 154.137 486.596 150.87 484.129 148.855C481.696 146.839 478.29 145.831 473.912 145.831C468.595 145.831 464.476 147.603 461.557 151.148C458.673 154.658 457.213 159.697 457.179 166.265V171.791C457.179 178.359 458.551 183.45 461.297 187.064C464.077 190.644 468.091 192.433 473.338 192.433C478.03 192.433 481.592 191.478 484.024 189.566C486.492 187.62 488.073 184.371 488.768 179.818H498.412ZM546.056 184.927H518.95L513.216 199.471H503.364L528.333 138.742H536.986L561.59 199.471H551.79L546.056 184.927ZM522.078 177.056H542.981L532.607 150.523L522.078 177.056ZM612.624 146.717H591.825V199.471H582.181V146.717H561.486V138.742H612.624V146.717Z" fill="#6E9C8D"/>
</svg>
