<svg width="121" height="107" viewBox="0 0 121 107" fill="none" xmlns="http://www.w3.org/2000/svg">
<path fill-rule="evenodd" clip-rule="evenodd" d="M54.6681 0.279854C54.3027 0.645285 54.2807 2.53645 54.6153 4.81905C54.9869 7.35514 55.6838 15.3128 55.5464 15.4502C55.4795 15.5173 54.5832 15.6749 53.5547 15.8006C52.526 15.9263 51.4277 16.0908 51.114 16.1658C50.6351 16.2808 50.39 16.0554 49.5839 14.7576C49.0561 13.9079 47.9358 12.1432 47.0943 10.8358C46.2527 9.5286 45.2804 8.00313 44.9336 7.44593C44.2305 6.31648 41.8681 4.38324 40.8914 4.13792C40.0149 3.9181 39.4587 4.33963 39.3636 5.29644C39.3195 5.74092 39.5128 8.08193 39.7933 10.4984C40.0736 12.9149 40.3816 16.0087 40.4772 17.3733L40.6514 19.8545L39.9239 20.1312C39.524 20.2832 38.8505 20.5637 38.4277 20.7542C38.0049 20.9449 36.8433 21.4509 35.8467 21.8785C34.8499 22.3062 33.3007 23.07 32.4041 23.5759C28.086 26.012 26.3935 28.1493 25.3127 32.5309C25.0419 33.6292 24.6398 35.2488 24.4192 36.1296C23.7136 38.9467 22.5971 40.565 20.404 41.9495C19.8693 42.2871 15.9589 44.4152 11.7145 46.6786C7.4701 48.9419 3.40038 51.1742 2.67079 51.6391C0.517476 53.0108 0.0508062 54.4822 1.21417 56.2319C2.04958 57.4886 10.7888 66.0939 13.239 68.0726C18.1071 72.0038 22.7728 72.7502 30.9054 70.8991C35.1419 69.9349 39.3164 69.5386 43.0141 69.75C48.0434 70.0372 51.1255 69.2 53.6215 66.8684C56.7192 63.975 59.6908 59.3244 63.8577 50.8486C64.5472 49.446 65.4206 47.678 65.7986 46.9194C66.7141 45.0825 67.5735 44.4396 68.6866 44.7592C69.9968 45.1348 70.998 46.6827 71.6452 49.3338C72.1374 51.3497 72.7038 54.6064 72.7178 55.5025C72.7214 55.7211 73.198 55.8213 74.2344 55.8213C75.7369 55.8213 75.7514 55.8142 76.6769 54.61C78.3314 52.4577 81.7625 47.8058 82.2369 47.0719C82.7946 46.2092 83.6744 45.8203 84.1673 46.2186C84.5827 46.5542 84.4167 50.3406 83.7866 54.9043C83.4711 57.1889 83.4622 57.7232 83.7368 57.9007C83.9204 58.0192 84.8494 58.591 85.8012 59.1711C87.853 60.4217 91.3173 63.3997 92.7252 65.1228C94.3211 67.076 95.7415 69.3053 96.9597 71.7692C97.9412 73.7542 98.4551 74.4139 100.869 76.786L103.648 79.5177L103.516 80.6112C103.433 81.2918 102.835 82.6684 101.932 84.2551C98.783 89.7875 97.8545 90.9213 95.562 92.0324C94.075 92.7533 92.9504 93.0693 87.386 94.3308C78.885 96.2579 74.1484 99.2632 75.2853 102.008C76.3441 104.564 80.6015 106.133 86.4935 106.139C90.69 106.143 93.5826 105.492 97.203 103.73C109.224 97.8785 117.667 86.9215 120.005 74.1362C120.25 72.7984 120.41 70.5148 120.41 68.3628C120.41 59.0505 116.94 50.9353 109.894 43.771C105.633 39.4389 100.667 35.9552 93.6338 32.3651C82.2412 26.5496 71.835 18.5081 65.2478 10.4293C64.3902 9.37738 63.6261 8.45934 63.5501 8.38921C63.288 8.14721 61.8834 6.21677 60.7672 4.56404C59.2481 2.3151 58.5374 1.58143 57.0397 0.715668C55.6438 -0.0911875 55.133 -0.185031 54.6681 0.279854ZM37.9914 36.1786C39.8948 37.5574 40.0282 40.1116 38.2882 41.8594C37.4388 42.7127 37.1975 42.8157 36.0479 42.8157C34.2743 42.8157 33.595 42.5 32.6945 41.2569C30.2095 37.8262 34.5375 33.6766 37.9914 36.1786ZM85.6382 71.4923C85.0973 71.9936 84.9634 72.3499 84.9634 73.2891C84.9634 74.9002 85.7637 75.7122 87.3519 75.7122C88.3077 75.7122 88.593 75.5875 89.1484 74.9275C90.0721 73.83 90.0402 72.5893 89.0633 71.6124C88.0804 70.6298 86.6241 70.5786 85.6382 71.4923Z" fill="#DBAD95"/>
</svg>
