<svg width="29" height="30" viewBox="0 0 29 30" fill="none" xmlns="http://www.w3.org/2000/svg">
<path fill-rule="evenodd" clip-rule="evenodd" d="M13.2738 0.0498047C13.2088 0.114839 13.2049 0.451404 13.2644 0.857632C13.3305 1.30897 13.4546 2.72517 13.4301 2.74963C13.4182 2.76156 13.2587 2.78961 13.0756 2.81198C12.8926 2.83436 12.6971 2.86363 12.6413 2.87697C12.556 2.89744 12.5124 2.85732 12.369 2.62637C12.275 2.47515 12.0757 2.16109 11.9259 1.92841C11.7761 1.69578 11.6031 1.42429 11.5414 1.32513C11.4162 1.12412 10.9958 0.780071 10.822 0.736412C10.666 0.697292 10.567 0.772311 10.5501 0.94259C10.5422 1.02169 10.5766 1.43831 10.6266 1.86837C10.6764 2.29842 10.7313 2.84902 10.7483 3.09186L10.7793 3.53345L10.6498 3.58269C10.5786 3.60974 10.4588 3.65966 10.3835 3.69356C10.3083 3.72751 10.1016 3.81755 9.92421 3.89366C9.74681 3.96976 9.4711 4.10569 9.31153 4.19573C8.54305 4.62928 8.24184 5.00964 8.04951 5.78942C8.00131 5.98488 7.92974 6.27312 7.89048 6.42987C7.76491 6.93122 7.56622 7.21923 7.17592 7.46561C7.08075 7.5257 6.38484 7.90443 5.62947 8.30725C4.87411 8.71003 4.14983 9.10732 4.01999 9.19005C3.63677 9.43417 3.55372 9.69603 3.76076 10.0074C3.90944 10.2311 5.46473 11.7625 5.90078 12.1147C6.76715 12.8143 7.59749 12.9471 9.04481 12.6177C9.79877 12.4461 10.5417 12.3756 11.1998 12.4132C12.0948 12.4643 12.6433 12.3153 13.0875 11.9004C13.6388 11.3854 14.1677 10.5578 14.9092 9.04936C15.0319 8.79976 15.1874 8.48511 15.2546 8.35009C15.4176 8.0232 15.5705 7.90878 15.7686 7.96565C16.0018 8.0325 16.18 8.30798 16.2952 8.77979C16.3827 9.13854 16.4835 9.71814 16.486 9.87761C16.4867 9.91651 16.5715 9.93434 16.7559 9.93434C17.0233 9.93434 17.0259 9.93307 17.1906 9.71877C17.4851 9.33573 18.0957 8.50785 18.1801 8.37723C18.2794 8.2237 18.4359 8.15449 18.5237 8.22538C18.5976 8.2851 18.5681 8.95896 18.4559 9.77114C18.3998 10.1777 18.3982 10.2728 18.4471 10.3044C18.4797 10.3255 18.6451 10.4273 18.8144 10.5305C19.1796 10.7531 19.7961 11.2831 20.0467 11.5897C20.3307 11.9373 20.5835 12.334 20.8003 12.7725C20.975 13.1258 21.0664 13.2432 21.496 13.6654L21.9906 14.1515L21.967 14.3461C21.9524 14.4673 21.8459 14.7122 21.6852 14.9946C21.1248 15.9792 20.9595 16.181 20.5515 16.3787C20.2869 16.507 20.0868 16.5632 19.0965 16.7878C17.5836 17.1307 16.7406 17.6656 16.943 18.1541C17.1314 18.6089 17.8891 18.8882 18.9377 18.8892C19.6845 18.8899 20.1993 18.7741 20.8436 18.4605C22.983 17.4191 24.4855 15.4691 24.9016 13.1938C24.9452 12.9557 24.9737 12.5493 24.9737 12.1663C24.9737 10.509 24.3561 9.06479 23.1021 7.78979C22.3438 7.01881 21.46 6.39883 20.2084 5.75992C18.1809 4.72495 16.3289 3.29382 15.1566 1.85607C15.004 1.66886 14.868 1.50548 14.8545 1.493C14.8078 1.44993 14.5579 1.10638 14.3592 0.812248C14.0889 0.412011 13.9624 0.281442 13.6959 0.127365C13.4474 -0.0162284 13.3565 -0.0329295 13.2738 0.0498047ZM10.3059 6.43858C10.6446 6.68397 10.6684 7.13853 10.3587 7.44959C10.2075 7.60145 10.1646 7.61978 9.96002 7.61978C9.64438 7.61978 9.52347 7.5636 9.36322 7.34235C8.92096 6.73181 9.69121 5.99333 10.3059 6.43858ZM18.7854 12.7233C18.6892 12.8125 18.6654 12.8759 18.6654 13.043C18.6654 13.3298 18.8078 13.4743 19.0904 13.4743C19.2605 13.4743 19.3113 13.4521 19.4101 13.3346C19.5745 13.1393 19.5689 12.9185 19.395 12.7446C19.2201 12.5698 18.9609 12.5606 18.7854 12.7233Z" fill="#DBAD95"/>
<path d="M1.78903 24.3343V27.1591H0.837524V19.9435H3.49877C4.28839 19.9435 4.9062 20.145 5.35222 20.5481C5.80154 20.9511 6.02621 21.4847 6.02621 22.1488C6.02621 22.8492 5.8065 23.3894 5.36709 23.7693C4.93098 24.146 4.3049 24.3343 3.48886 24.3343H1.78903ZM1.78903 23.5562H3.49877C4.00756 23.5562 4.39741 23.4373 4.66833 23.1994C4.93924 22.9582 5.0747 22.6113 5.0747 22.1587C5.0747 21.7292 4.93924 21.3856 4.66833 21.1279C4.39741 20.8702 4.02573 20.7364 3.55328 20.7265H1.78903V23.5562ZM10.64 24.5523H8.00355V26.4107H11.0712V27.1591H7.08674V21.3856H11.0414V22.1438H8.00355V23.7991H10.64V24.5523ZM17.1717 20.7265H14.8524V27.1591H13.9059V20.7265H11.5915V19.9435H17.1717V20.7265ZM21.1512 25.7764H18.5742L18.0291 27.1591H17.0924L19.4662 21.3856H20.2889L22.628 27.1591H21.6963L21.1512 25.7764ZM18.8715 25.0281H20.8588L19.8726 22.5056L18.8715 25.0281ZM24.3377 24.9884V27.1591H23.4209V21.3856H25.7353C26.4093 21.3856 26.9461 21.5508 27.3459 21.8812C27.7457 22.2083 27.9455 22.6493 27.9455 23.2044C27.9455 23.766 27.7523 24.2038 27.3657 24.5176C26.9792 24.8315 26.4324 24.9884 25.7254 24.9884H24.3377ZM24.3377 24.2352H25.7353C26.1449 24.2352 26.4621 24.1476 26.6868 23.9725C26.9114 23.7974 27.0238 23.5447 27.0238 23.2143C27.0238 22.8971 26.9114 22.6411 26.6868 22.4461C26.4621 22.2479 26.1532 22.1471 25.76 22.1438H24.3377V24.2352Z" fill="#1F3121"/>
</svg>
